<?xml version="1.0" encoding="UTF-8"?>
<svg id="b" data-name="Layer 2" xmlns="http://www.w3.org/2000/svg" viewBox="0 0 274.06 50.53">
  <g id="c" data-name="Layer 1">
    <g>
      <path d="m20.85,36.54c-.89,1.5-2.06,2.58-3.5,3.24-1.45.66-3.09.99-4.91.99-2.07,0-3.89-.4-5.47-1.2-1.58-.81-2.87-1.89-3.89-3.27-1.02-1.38-1.79-2.96-2.31-4.74-.52-1.79-.78-3.65-.78-5.58s.26-3.65.78-5.39c.52-1.73,1.29-3.26,2.31-4.58,1.02-1.32,2.3-2.39,3.83-3.19,1.54-.8,3.33-1.21,5.36-1.21,1.64,0,3.21.35,4.69,1.05,1.48.7,2.65,1.72,3.51,3.08h.11V1.8h7.61v38.27h-7.24v-3.53h-.11Zm-.32-13.7c-.22-1.05-.58-1.99-1.1-2.79-.52-.8-1.19-1.45-2.01-1.96-.82-.5-1.86-.75-3.11-.75s-2.31.26-3.16.75c-.86.5-1.55,1.16-2.07,1.99-.52.82-.89,1.76-1.12,2.81-.24,1.06-.35,2.15-.35,3.3,0,1.07.12,2.14.37,3.22.25,1.07.66,2.03,1.21,2.87.56.84,1.25,1.52,2.09,2.03.84.52,1.85.78,3.03.78,1.25,0,2.3-.25,3.14-.75.84-.5,1.51-1.17,2.01-2.01.5-.84.85-1.8,1.07-2.87.21-1.07.32-2.18.32-3.32s-.1-2.25-.32-3.3" style="fill: #fff;"/>
      <path d="m39.94,33.43c1.14,1.11,2.79,1.66,4.93,1.66,1.54,0,2.86-.38,3.97-1.15,1.11-.77,1.79-1.58,2.04-2.44h6.7c-1.08,3.32-2.72,5.7-4.93,7.13-2.22,1.43-4.9,2.14-8.04,2.14-2.18,0-4.15-.35-5.9-1.04-1.75-.7-3.23-1.69-4.45-2.97-1.21-1.29-2.15-2.82-2.82-4.61-.66-1.78-.99-3.75-.99-5.9s.33-4,1.02-5.79c.68-1.79,1.64-3.33,2.9-4.64,1.25-1.3,2.74-2.33,4.47-3.08,1.74-.75,3.66-1.12,5.76-1.12,2.36,0,4.41.46,6.16,1.37,1.75.91,3.2,2.14,4.32,3.67,1.13,1.54,1.94,3.29,2.44,5.26.5,1.97.68,4.02.54,6.16h-20c.11,2.47.74,4.25,1.88,5.36m8.6-14.58c-.91-1-2.29-1.5-4.16-1.5-1.21,0-2.22.21-3.03.62-.8.41-1.45.92-1.92,1.53-.49.61-.82,1.25-1.02,1.93-.2.68-.32,1.29-.35,1.82h12.39c-.36-1.93-.99-3.39-1.9-4.4" style="fill: #fff;"/>
      <path d="m66.83,33.19c.33.59.77,1.07,1.31,1.45.53.37,1.15.65,1.85.83.7.18,1.43.27,2.17.27.54,0,1.1-.06,1.69-.19.59-.12,1.13-.32,1.61-.59.48-.27.88-.62,1.2-1.07.32-.45.48-1.01.48-1.69,0-1.14-.76-2-2.28-2.57-1.52-.57-3.64-1.14-6.35-1.72-1.11-.25-2.19-.55-3.24-.88-1.05-.34-1.99-.78-2.81-1.34-.82-.56-1.48-1.25-1.98-2.09-.5-.84-.75-1.87-.75-3.08,0-1.78.35-3.25,1.04-4.4.7-1.14,1.62-2.04,2.76-2.71,1.14-.66,2.43-1.13,3.86-1.39,1.43-.27,2.9-.4,4.39-.4s2.96.14,4.38.43c1.41.29,2.67.77,3.78,1.45,1.1.68,2.02,1.58,2.76,2.71.73,1.13,1.17,2.55,1.32,4.26h-7.24c-.1-1.47-.66-2.46-1.66-2.98-1-.52-2.18-.78-3.54-.78-.43,0-.9.03-1.4.08-.5.06-.95.17-1.36.35-.42.18-.76.44-1.04.78-.29.34-.43.79-.43,1.37,0,.68.25,1.23.75,1.66.5.43,1.15.78,1.96,1.04.8.27,1.73.51,2.76.72,1.04.22,2.09.45,3.16.7,1.11.25,2.19.55,3.24.91,1.05.36,1.99.83,2.81,1.42.83.59,1.49,1.33,1.99,2.2.5.87.75,1.95.75,3.24,0,1.82-.36,3.35-1.1,4.58-.73,1.23-1.69,2.22-2.87,2.97-1.17.75-2.53,1.28-4.04,1.58-1.52.3-3.06.45-4.64.45s-3.18-.16-4.72-.48c-1.54-.32-2.9-.86-4.1-1.61-1.2-.75-2.18-1.74-2.95-2.98-.77-1.23-1.19-2.78-1.26-4.64h7.24c0,.82.17,1.53.51,2.12" style="fill: #fff;"/>
      <path d="m87.28,1.8h7.61v6.27h-7.61V1.8Zm7.61,38.27h-7.61V12.36h7.61v27.71Z" style="fill: #fff;"/>
      <path d="m124.93,42.12c-.3,1.43-.96,2.76-1.96,3.99-1,1.23-2.45,2.28-4.35,3.14-1.89.85-4.43,1.29-7.61,1.29-1.36,0-2.74-.17-4.16-.51-1.41-.34-2.7-.86-3.86-1.58-1.16-.71-2.12-1.64-2.9-2.76-.77-1.12-1.2-2.47-1.31-4.04h7.57c.36,1.43,1.06,2.42,2.09,2.98,1.04.56,2.23.83,3.59.83,2.15,0,3.71-.64,4.69-1.93.98-1.29,1.45-2.91,1.42-4.88v-3.65h-.1c-.83,1.47-1.99,2.55-3.51,3.24-1.52.69-3.12,1.04-4.8,1.04-2.08,0-3.86-.37-5.36-1.1-1.5-.73-2.73-1.73-3.7-3-.97-1.26-1.67-2.75-2.12-4.45-.44-1.69-.67-3.49-.67-5.38,0-1.79.26-3.51.78-5.17.52-1.66,1.28-3.13,2.28-4.4,1-1.27,2.25-2.28,3.73-3.03,1.48-.75,3.19-1.12,5.12-1.12,1.83,0,3.42.34,4.8,1.02,1.38.68,2.53,1.82,3.46,3.43h.1v-3.7h7.24v25.95c0,1.11-.15,2.38-.46,3.81m-10.43-9.22c.82-.43,1.5-1,2.04-1.71.54-.72.94-1.53,1.21-2.44.26-.91.4-1.87.4-2.87,0-1.14-.1-2.22-.32-3.24-.21-1.02-.57-1.92-1.07-2.7-.5-.79-1.16-1.41-1.98-1.88-.82-.47-1.86-.7-3.11-.7-1.07,0-2,.22-2.76.65-.77.43-1.41,1.01-1.93,1.75-.52.73-.89,1.57-1.13,2.52-.23.95-.34,1.94-.34,2.98s.1,1.99.29,2.97c.2.99.54,1.87,1.02,2.66.48.78,1.12,1.43,1.9,1.93.79.51,1.77.75,2.95.75,1.07,0,2.02-.21,2.84-.64" style="fill: #fff;"/>
      <path d="m136.6,12.36v3.86h.16c.97-1.61,2.22-2.78,3.76-3.51,1.53-.73,3.1-1.1,4.71-1.1,2.04,0,3.7.28,5.01.83,1.31.56,2.33,1.33,3.09,2.31.75.98,1.27,2.18,1.58,3.59.3,1.41.45,2.97.45,4.69v17.04h-7.61v-15.65c0-2.29-.36-4-1.07-5.12-.71-1.12-1.99-1.69-3.81-1.69-2.08,0-3.57.62-4.51,1.85-.93,1.23-1.39,3.26-1.39,6.09v14.52h-7.62V12.36h7.24Z" style="fill: #fff;"/>
      <path d="m172.48,17.28c-1.22,0-2.23.28-3.06.83-.82.55-1.49,1.27-2.01,2.14-.52.88-.88,1.84-1.1,2.89-.21,1.06-.32,2.1-.32,3.14s.11,2.02.32,3.06c.22,1.03.56,1.97,1.05,2.81.48.84,1.13,1.53,1.96,2.06.82.54,1.83.8,3,.8,1.82,0,3.23-.51,4.21-1.53.98-1.02,1.6-2.39,1.85-4.1h7.34c-.5,3.68-1.93,6.49-4.29,8.41-2.36,1.93-5.38,2.9-9.06,2.9-2.07,0-3.98-.35-5.71-1.05-1.73-.7-3.21-1.67-4.42-2.92-1.22-1.25-2.17-2.74-2.85-4.48-.68-1.73-1.02-3.63-1.02-5.71s.31-4.13.94-5.97c.62-1.84,1.54-3.43,2.76-4.77,1.21-1.34,2.7-2.38,4.45-3.14,1.75-.75,3.75-1.13,6-1.13,1.64,0,3.23.22,4.74.65,1.52.42,2.88,1.08,4.08,1.96,1.2.88,2.17,1.96,2.92,3.27.75,1.31,1.18,2.85,1.29,4.64h-7.45c-.5-3.18-2.38-4.78-5.63-4.78" style="fill: #faaf1b;"/>
      <path d="m206.62,40.01v-3.86h-.16c-.97,1.61-2.22,2.77-3.76,3.48-1.54.72-3.11,1.07-4.72,1.07-2.04,0-3.71-.27-5.02-.8-1.3-.54-2.33-1.29-3.08-2.28-.75-.98-1.27-2.17-1.57-3.59-.31-1.41-.46-2.97-.46-4.69V12.3h7.62v15.65c0,2.29.35,4,1.07,5.12.71,1.12,1.98,1.69,3.81,1.69,2.07,0,3.57-.62,4.51-1.85.92-1.23,1.39-3.26,1.39-6.08v-14.53h7.61v27.72h-7.24Z" style="fill: #faaf1b;"/>
      <path d="m225.12,0v15.67h.11c.93-1.43,2.19-2.48,3.78-3.14,1.59-.66,3.24-.99,4.96-.99,1.4,0,2.77.29,4.13.86,1.36.57,2.58,1.45,3.67,2.63,1.09,1.18,1.97,2.69,2.65,4.53.68,1.85,1.02,4.03,1.02,6.57s-.34,4.73-1.02,6.57c-.68,1.84-1.57,3.35-2.65,4.53-1.09,1.17-2.32,2.05-3.67,2.62-1.36.57-2.73.86-4.13.86-2.04,0-3.86-.32-5.47-.97-1.61-.64-2.82-1.73-3.64-3.27h-.11v3.54h-7.24V0h7.61Zm12.33,22.8c-.25-1.07-.64-2.02-1.18-2.84-.53-.82-1.21-1.48-2.01-1.95-.8-.49-1.78-.73-2.92-.73s-2.08.24-2.89.73c-.83.48-1.51,1.13-2.04,1.95-.54.82-.93,1.77-1.18,2.84-.25,1.07-.37,2.2-.37,3.38s.12,2.25.37,3.33c.25,1.08.65,2.02,1.18,2.84.53.82,1.21,1.47,2.04,1.96.81.48,1.78.73,2.89.73s2.12-.25,2.92-.73c.8-.48,1.48-1.14,2.01-1.96.54-.82.93-1.77,1.18-2.84.25-1.08.38-2.18.38-3.33s-.13-2.3-.38-3.38" style="fill: #faaf1b;"/>
      <path d="m260.07,17.66c.93-.07,1.79-.27,2.59-.61.81-.34,1.47-.83,1.99-1.47.52-.64.78-1.5.78-2.57,0-1.61-.54-2.84-1.61-3.7-1.07-.85-2.3-1.29-3.7-1.29-1.93,0-3.39.64-4.37,1.91-.98,1.27-1.45,2.87-1.42,4.8h-7.24c.07-1.93.42-3.69,1.05-5.28.62-1.59,1.5-2.96,2.63-4.1,1.13-1.15,2.47-2.03,4.05-2.65,1.57-.62,3.32-.93,5.26-.93,1.5,0,3,.22,4.5.67,1.5.44,2.85,1.12,4.04,2.01,1.2.89,2.17,1.98,2.92,3.27.75,1.29,1.12,2.77,1.12,4.45,0,1.82-.43,3.43-1.31,4.82-.88,1.4-2.19,2.34-3.94,2.84v.1c2.07.47,3.7,1.47,4.88,3.01,1.18,1.54,1.77,3.38,1.77,5.52,0,1.97-.38,3.72-1.15,5.26-.77,1.53-1.8,2.82-3.09,3.85-1.29,1.04-2.77,1.83-4.45,2.36-1.68.54-3.43.81-5.25.81-2.11,0-4.03-.3-5.76-.91-1.74-.61-3.21-1.49-4.42-2.66-1.21-1.17-2.15-2.58-2.81-4.26-.67-1.68-.97-3.61-.94-5.79h7.24c.04,1,.2,1.96.48,2.87.29.92.7,1.7,1.23,2.36.53.67,1.21,1.19,2.01,1.58.8.39,1.76.59,2.87.59,1.72,0,3.16-.53,4.35-1.58,1.18-1.05,1.77-2.49,1.77-4.31,0-1.43-.27-2.52-.83-3.27-.55-.76-1.26-1.3-2.11-1.64-.86-.34-1.8-.54-2.82-.59-1.02-.05-1.99-.08-2.92-.08v-5.36c.82.08,1.7.08,2.63,0" style="fill: #faaf1b;"/>
    </g>
  </g>
</svg>