<?xml version="1.0" encoding="UTF-8"?>
<svg id="b" data-name="Layer 2" xmlns="http://www.w3.org/2000/svg" xmlns:xlink="http://www.w3.org/1999/xlink" viewBox="0 0 99.4 38.11">
  <defs>
    <clipPath id="d">
      <rect width="99.4" height="38.11" style="fill: none;"/>
    </clipPath>
  </defs>
  <g id="c" data-name="Layer 1">
    <g style="clip-path: url(#d); fill: none;">
      <path d="m18.02,29.34c2.78,0,4.3-.93,4.3-3.05,0-1.91-1.42-2.94-4.57-2.94h-6.04v5.99h6.31Zm-1.96-14.48c2.67,0,4.14-1.09,4.14-2.99,0-2.07-1.14-3.1-3.86-3.1h-4.63v6.1h4.35Zm10.02,3.05c4.41,1.04,7.95,4.3,7.95,9.53,0,6.7-5.61,10.67-14.32,10.67H0V0h19.33C26.08,0,31.9,2.5,31.9,10.02c0,4.03-2.99,6.69-5.82,7.78v.11Z" style="fill: #bd2332;"/>
      <polygon points="64.63 18.78 64.63 0 76.06 0 76.06 38.11 65.72 38.11 49.82 17.97 49.72 17.97 49.72 38.11 38.17 38.11 38.17 0 49.72 0 64.47 18.78 64.63 18.78" style="fill: #bd2332;"/>
      <polygon points="80.99 0 92.7 0 80.99 11.66 80.99 0" style="fill: #bd2332;"/>
      <polygon points="80.99 16.12 92.7 4.46 92.7 38.11 80.99 38.11 80.99 16.12" style="fill: #bd2332;"/>
      <path d="m95.32,35.09c.11-.26.27-.48.46-.67.19-.19.42-.34.68-.45.26-.11.53-.16.82-.16s.56.05.82.16c.26.11.48.26.67.45.19.19.34.41.46.67.11.26.17.53.17.83s-.06.59-.17.84c-.11.26-.27.48-.46.67s-.42.34-.67.44c-.26.11-.53.16-.82.16s-.56-.05-.82-.16c-.26-.11-.49-.25-.68-.44s-.35-.42-.46-.67c-.11-.26-.17-.54-.17-.84s.06-.57.17-.83m.35,1.55c.09.22.21.41.37.57.16.16.34.29.55.38s.44.14.69.14.47-.05.68-.14c.21-.09.39-.22.55-.38.16-.16.28-.35.37-.57.09-.22.13-.46.13-.72s-.04-.49-.13-.71c-.09-.22-.21-.41-.37-.57-.16-.16-.34-.29-.55-.38-.21-.09-.44-.14-.68-.14s-.48.05-.69.14-.4.22-.55.38c-.16.16-.28.35-.37.57-.09.22-.13.45-.13.71s.04.5.13.72" style="fill: #bd2332;"/>
      <path d="m97.58,36.07c.18-.02.33-.08.45-.18.12-.1.18-.26.18-.47,0-.23-.07-.4-.21-.51-.14-.11-.35-.17-.63-.17h-.93v2.39h.37v-1.03h.39l.65,1.03h.4l-.68-1.06Zm-.35-.24h-.4v-.79h.51c.06,0,.13,0,.2.01.07,0,.12.03.18.05.05.03.09.06.12.11.03.05.05.11.05.2,0,.1-.02.18-.05.23-.04.06-.08.1-.14.12-.06.03-.13.04-.21.05-.08,0-.16,0-.25,0" style="fill: #bd2332;"/>
    </g>
  </g>
</svg>